<?xml version="1.0" encoding="UTF-8" standalone="no"?>
<!DOCTYPE svg PUBLIC "-//W3C//DTD SVG 1.1//EN"
 "http://www.w3.org/Graphics/SVG/1.1/DTD/svg11.dtd">
<!-- Generated by graphviz version 2.43.0 (0)
 -->
<!-- Title: %3 Pages: 1 -->
<svg width="274pt" height="188pt"
 viewBox="0.00 0.00 274.39 188.00" xmlns="http://www.w3.org/2000/svg" xmlns:xlink="http://www.w3.org/1999/xlink">
<g id="graph0" class="graph" transform="scale(1 1) rotate(0) translate(4 184)">
<title>%3</title>
<polygon fill="white" stroke="transparent" points="-4,4 -4,-184 270.39,-184 270.39,4 -4,4"/>
<!-- control -->
<g id="node1" class="node">
<title>control</title>
<ellipse fill="none" stroke="black" cx="128.04" cy="-162" rx="43.59" ry="18"/>
<text text-anchor="middle" x="128.04" y="-158.3" font-family="Times,serif" font-size="14.00">control</text>
</g>
<!-- state&#45;machine -->
<g id="node3" class="node">
<title>state&#45;machine</title>
<ellipse fill="none" stroke="black" cx="76.04" cy="-90" rx="76.09" ry="18"/>
<text text-anchor="middle" x="76.04" y="-86.3" font-family="Times,serif" font-size="14.00">state&#45;machine</text>
</g>
<!-- control&#45;&gt;state&#45;machine -->
<g id="edge1" class="edge">
<title>control&#45;&gt;state&#45;machine</title>
<path fill="none" stroke="black" d="M115.72,-144.41C109.47,-135.99 101.73,-125.58 94.76,-116.2"/>
<polygon fill="black" stroke="black" points="97.41,-113.9 88.64,-107.96 91.79,-118.07 97.41,-113.9"/>
</g>
<!-- type&#45;utils -->
<g id="node4" class="node">
<title>type&#45;utils</title>
<ellipse fill="none" stroke="black" cx="128.04" cy="-18" rx="54.69" ry="18"/>
<text text-anchor="middle" x="128.04" y="-14.3" font-family="Times,serif" font-size="14.00">type&#45;utils</text>
</g>
<!-- control&#45;&gt;type&#45;utils -->
<g id="edge2" class="edge">
<title>control&#45;&gt;type&#45;utils</title>
<path fill="none" stroke="black" d="M141.68,-144.5C148.98,-134.59 157.23,-121.34 161.04,-108 165.44,-92.62 165.44,-87.38 161.04,-72 158.21,-62.1 152.94,-52.25 147.42,-43.77"/>
<polygon fill="black" stroke="black" points="150.26,-41.72 141.68,-35.5 144.51,-45.71 150.26,-41.72"/>
</g>
<!-- graph -->
<g id="node2" class="node">
<title>graph</title>
<ellipse fill="none" stroke="black" cx="228.04" cy="-162" rx="38.19" ry="18"/>
<text text-anchor="middle" x="228.04" y="-158.3" font-family="Times,serif" font-size="14.00">graph</text>
</g>
<!-- state&#45;machine&#45;&gt;type&#45;utils -->
<g id="edge3" class="edge">
<title>state&#45;machine&#45;&gt;type&#45;utils</title>
<path fill="none" stroke="black" d="M88.63,-72.05C94.89,-63.63 102.58,-53.28 109.5,-43.97"/>
<polygon fill="black" stroke="black" points="112.42,-45.9 115.57,-35.79 106.8,-41.73 112.42,-45.9"/>
</g>
</g>
</svg>
