<?xml version="1.0" encoding="UTF-8" standalone="no"?>
<!DOCTYPE svg PUBLIC "-//W3C//DTD SVG 1.1//EN"
 "http://www.w3.org/Graphics/SVG/1.1/DTD/svg11.dtd">
<!-- Generated by graphviz version 2.43.0 (0)
 -->
<!-- Title: %3 Pages: 1 -->
<svg width="274pt" height="211pt"
 viewBox="0.00 0.00 274.39 211.00" xmlns="http://www.w3.org/2000/svg" xmlns:xlink="http://www.w3.org/1999/xlink">
<g id="graph0" class="graph" transform="scale(1 1) rotate(0) translate(4 207)">
<title>%3</title>
<polygon fill="white" stroke="transparent" points="-4,4 -4,-207 270.39,-207 270.39,4 -4,4"/>
<text text-anchor="middle" x="133.19" y="-7.8" font-family="Times,serif" font-size="14.00">ts&#45;stadium package dependencies</text>
<!-- control -->
<g id="node1" class="node">
<title>control</title>
<ellipse fill="none" stroke="black" cx="128.04" cy="-185" rx="43.59" ry="18"/>
<text text-anchor="middle" x="128.04" y="-181.3" font-family="Times,serif" font-size="14.00">control</text>
</g>
<!-- state&#45;machine -->
<g id="node3" class="node">
<title>state&#45;machine</title>
<ellipse fill="none" stroke="black" cx="76.04" cy="-113" rx="76.09" ry="18"/>
<text text-anchor="middle" x="76.04" y="-109.3" font-family="Times,serif" font-size="14.00">state&#45;machine</text>
</g>
<!-- control&#45;&gt;state&#45;machine -->
<g id="edge1" class="edge">
<title>control&#45;&gt;state&#45;machine</title>
<path fill="none" stroke="black" d="M115.72,-167.41C109.47,-158.99 101.73,-148.58 94.76,-139.2"/>
<polygon fill="black" stroke="black" points="97.41,-136.9 88.64,-130.96 91.79,-141.07 97.41,-136.9"/>
</g>
<!-- type&#45;utils -->
<g id="node4" class="node">
<title>type&#45;utils</title>
<ellipse fill="none" stroke="black" cx="128.04" cy="-41" rx="54.69" ry="18"/>
<text text-anchor="middle" x="128.04" y="-37.3" font-family="Times,serif" font-size="14.00">type&#45;utils</text>
</g>
<!-- control&#45;&gt;type&#45;utils -->
<g id="edge2" class="edge">
<title>control&#45;&gt;type&#45;utils</title>
<path fill="none" stroke="black" d="M141.68,-167.5C148.98,-157.59 157.23,-144.34 161.04,-131 165.44,-115.62 165.44,-110.38 161.04,-95 158.21,-85.1 152.94,-75.25 147.42,-66.77"/>
<polygon fill="black" stroke="black" points="150.26,-64.72 141.68,-58.5 144.51,-68.71 150.26,-64.72"/>
</g>
<!-- graph -->
<g id="node2" class="node">
<title>graph</title>
<ellipse fill="none" stroke="black" cx="228.04" cy="-185" rx="38.19" ry="18"/>
<text text-anchor="middle" x="228.04" y="-181.3" font-family="Times,serif" font-size="14.00">graph</text>
</g>
<!-- state&#45;machine&#45;&gt;type&#45;utils -->
<g id="edge3" class="edge">
<title>state&#45;machine&#45;&gt;type&#45;utils</title>
<path fill="none" stroke="black" d="M88.63,-95.05C94.89,-86.63 102.58,-76.28 109.5,-66.97"/>
<polygon fill="black" stroke="black" points="112.42,-68.9 115.57,-58.79 106.8,-64.73 112.42,-68.9"/>
</g>
</g>
</svg>
